<svg width="349.651" height="431.609" viewBox="0 0 92.512 114.197" xmlns="http://www.w3.org/2000/svg"><path style="mix-blend-mode:normal" d="M89.01 113.643c-.36-.328-3.185-3.691-6.28-7.475a3363.617 3363.617 0 00-10.553-12.832c-2.711-3.274-6.252-7.56-7.87-9.525a543.556 543.556 0 00-3.51-4.233l-.568-.662.154.794c.085.437.229 1.478.32 2.315l.164 1.521h-1.52c-1.241 0-1.666-.123-2.318-.672-.44-.37-.91-.635-1.047-.59-.135.045-.515.742-.843 1.549-.327.807-.81 1.757-1.072 2.111l-.477.645.171-.661c.635-2.452.649-4.885.03-5.504-.233-.233-.66.492-.67 1.138-.015.826-1.69 4.696-2.617 6.044-.835 1.213-2.57 2.748-2.822 2.496-.073-.073.373-1.105.99-2.293 1.057-2.032 1.124-2.292 1.132-4.387.006-1.337-.112-2.35-.294-2.533-.534-.536-1.332-.02-1.78 1.15-.704 1.845-2.242 4.086-3.22 4.69-1.128.697-1.148.938-.09 1.15.466.093 1.126.531 1.521 1.01 1.691 2.052 4.28 4.38 5.732 5.157l1.575.842-.791.324c-2.122.868-6.255.523-8.594-.717-1.38-.731-1.59-.765-1.59-.256 0 .452 1.357 1.633 2.181 1.898 1.253.401-1.134.862-4.573.883-4.942.03-7.217.78-9.44 3.115l-.852.895-.172-.684c-.422-1.682.494-4.084 2.192-5.749 2.138-2.097 3.345-3.146 4.02-3.495.876-.453 3.46-.941 4.981-.941 1.248 0 2.986-.603 2.986-1.036 0-.405-.923-.816-1.835-.816-.446 0-.81-.076-.81-.169 0-.093.467-.676 1.039-1.297 1.35-1.465 2.127-3.016 2.318-4.632.13-1.1.08-1.328-.33-1.485-.376-.144-.786.169-1.815 1.383-3.817 4.503-5.368 5.387-9.838 5.606-2.616.128-2.676.118-2.832-.477-.087-.335-.11-.689-.048-.788.06-.098 1.027-.256 2.147-.35 3.368-.285 6.052-1.844 7.28-4.227.885-1.717.566-1.961-1.097-.84-.8.539-1.99 1.285-2.646 1.658l-1.19.678.966-1.036c2.139-2.294 4.563-6.733 5.363-9.82.543-2.093.527-3.225-.066-4.787-.982-2.584-4.69-7.312-7.211-9.195-.788-.589-2.624-1.956-4.08-3.038C20.717 49.4 13.85 40.624 11.84 33.673c-.912-3.15-.946-5.37-.137-8.845.79-3.398.735-4.617-.26-5.691-.483-.52-.887-.678-1.743-.678-1.812 0-3.877.786-4.787 1.823-.782.89-.803.982-.662 2.856.081 1.064.043 1.935-.085 1.935-.478 0-2.857-2.649-3.415-3.803-.817-1.686-.974-3.7-.435-5.555.243-.833.611-1.58.82-1.66.208-.08 1.245.324 2.304.897 1.893 1.025 1.923 1.058 1.847 2.01-.09 1.131.232 1.253.751.283.413-.77 1.8-1.93 3.114-2.602 1.783-.912 8.972-1.041 10.564-.19.297.16.851.659 1.23 1.11.848 1.007.903 2.454.255 6.689-.52 3.394-.328 4.657 1.09 7.194.843 1.505 12.764 18.31 15.293 21.557 1.193 1.532 1.991 2.055 3.512 2.302.986.16 1.972-.428 1.972-1.177 0-.324-3.877-5.98-11.698-17.066-1.001-1.42-1.963-2.581-2.139-2.583-.175 0-.973-.306-1.774-.677-3.09-1.432-5.08-4.364-4.468-6.582.382-1.38.677-1.36 1.416.099 1.335 2.634 3.466 4.374 5.72 4.667.954.124 1.434.015 2.61-.594 1.723-.892 2.468-1.829 2.514-3.163.048-1.379.494-1.38 1.301-.002 1.67 2.85 5.427 4.541 7.696 3.464 1.608-.763 2.79-2.035 2.79-3.003 0-.841-1.333-3.808-1.856-4.131-.155-.096-.523.134-.82.51-.633.805-1.688.897-2.959.257-1.003-.506-2.594-1.96-2.432-2.224.063-.101.697-.128 1.409-.06 1.11.107 1.352.042 1.698-.452.222-.317.35-.784.283-1.038-.066-.254-1.248-1.51-2.626-2.789-2.021-1.876-2.446-2.397-2.199-2.695.169-.204.441-.37.606-.37.54 0 4.752 3.875 6.951 6.394 2.702 3.095 3.847 4.609 8.474 11.2 2.044 2.911 5.139 7.317 6.879 9.79 5.05 7.182 8.034 11.737 8.44 12.888.208.588.372 1.68.366 2.425l-.011 1.356-1.055-1.19c-1.074-1.213-6.938-9.369-11.89-16.537-3.28-4.747-7.687-10.717-7.908-10.712-.087.002-.426.415-.752.92-.683 1.053-2.326 1.987-3.497 1.987-.443 0-.805.073-.805.163 0 .09 1.53 2.381 3.4 5.093 9.19 13.327 11.51 16.631 12.163 17.322.39.413 1.45 1.187 2.357 1.72 1.524.897 1.827 1.246 4.043 4.662 1.318 2.031 2.47 3.984 2.559 4.34.189.754-.447 1.36-1.425 1.36-.974 0-2.173-1.367-5.913-6.747-1.922-2.765-3.819-5.443-4.214-5.953-.853-1.097-8.881-12.57-12.53-17.905-2.134-3.119-2.701-3.78-3.37-3.927-.443-.098-1.588-.702-2.544-1.343-.957-.642-1.796-1.166-1.865-1.166-.069 0-.37.312-.67.693-.613.779-1.954 1.423-2.962 1.423-.417 0-.67.149-.67.394 0 .478 2.283 3.852 8.865 13.1 5.098 7.163 13.154 18.647 13.925 19.852.368.574 1.213.889 5.951 2.219 3.037.852 6.118 1.778 6.845 2.058.728.28 2.454.91 3.837 1.4 4.415 1.566 5.999 2.385 6.757 3.494.379.554 2.322 3.746 4.317 7.093 1.996 3.347 4.25 7.048 5.007 8.225 1.56 2.425 1.908 3.53 1.275 4.056-.23.19-.685.276-1.015.19-1.056-.275-4.336-4.695-10.405-14.022-1.528-2.348-3.012-4.551-3.298-4.894-.538-.644-1.315-.618-1.315.044 0 .828 10.44 17.132 18.487 28.874 1.646 2.4 1.926 3.27 1.239 3.84-.88.731-1.565.194-4.2-3.295-3.73-4.938-12.036-17.41-20.132-30.228-1.126-1.783-2.103-3.241-2.17-3.241-.069 0-.615.25-1.214.555-1.331.68-3.632.74-5.085.132-1.327-.554-1.478-.536-1.478.174 0 .622.645 1.46 4.647 6.048a283.047 283.047 0 014.884 5.79c3.724 4.56 9.763 11.584 12.938 15.05 3.212 3.507 10.869 13.56 10.869 14.27 0 1.161-1.195 1.438-2.211.512zM20.75 99.75c-.437-2.69.695-5.17 3.585-7.855 3.385-3.144 4.475-3.493 8.413-2.687 3.167.648 3.15.637 1.905 1.252-1.18.584-2.699 2.126-2.699 2.74 0 .557-2.098 1.884-3.268 2.068-2.409.379-5.52 2.351-7.062 4.478l-.715.985zm-4.017-4.138c-.314-2.51.33-4.194 2.525-6.595.743-.813 1.777-1.742 2.3-2.064.888-.55 1.048-.566 2.54-.258 1.828.378 3.623 1.046 3.623 1.35 0 .113-.288.279-.64.367-.351.088-1.922 1.347-3.49 2.797-2.234 2.067-2.927 2.573-3.206 2.342-.448-.372-1.637.704-2.606 2.356-.365.623-.71 1.133-.766 1.133-.056 0-.182-.642-.28-1.428zm68.2-21.692c-1.775-2.022-6.122-9.664-10.704-18.816-5.225-10.438-9.168-17.397-13.791-24.342-3.207-4.818-5.683-7.8-10.216-12.303-9.142-9.083-17.775-14.43-25.46-15.77-3.148-.548-7.486-.375-10.219.409-4.099 1.176-9.567 4.528-10.806 6.624-.609 1.032-.887 1.013-.884-.06.01-3.186 4.259-7 9.632-8.644C15.36.138 20.008-.232 23.42.149c8.743.975 16.434 4.946 25.604 13.221 10.442 9.424 16.769 18.078 26.93 36.839a1570.43 1570.43 0 006.1 11.112c6.242 11.258 6.387 11.598 5.433 12.811-.742.943-1.602.872-2.554-.212zM28.204 22.985c-1.175-.746-2.353-2.065-2.685-3.007-.193-.546.221-1.784.596-1.784.142 0 .486.506.763 1.125.278.618 1.057 1.868 1.732 2.778.675.91 1.131 1.654 1.014 1.654-.116 0-.755-.345-1.42-.766zm4.809-1.372c-.655-.439-1.69-1.348-2.302-2.02-.896-.985-1.06-1.314-.85-1.706.337-.63.825-.619 1.229.027.176.283 1.038 1.348 1.915 2.367 2.11 2.452 2.112 2.742.007 1.332zm2.005-4.04c-.723-.612-.986-1.011-.868-1.319.093-.242.322-.437.508-.433.319.008 2.059 2.091 2.059 2.465 0 .41-.737.101-1.699-.713zM7.15 12.243c-.498-.216-.86-.567-.86-.834 0-.253.646-1.086 1.435-1.851C8.9 8.42 9.507 8.062 11.064 7.589c1.751-.532 2.264-.565 6.436-.417 2.493.089 5.009.266 5.59.393l1.06.23-1.324.603c-.727.332-2.69 1.251-4.361 2.044-1.672.793-3.691 1.611-4.488 1.819-1.86.484-5.695.475-6.827-.017z" fill="#5865F2"/></svg>